<svg width="24" height="24" viewBox="0 0 24 24" fill="none" xmlns="http://www.w3.org/2000/svg">
<path d="M12.6901 12.6105H11.3005C11.3005 12.6105 10.5344 8.47363 11.01 7.42619C11.4856 6.37875 12.4822 6.37894 12.9805 7.42619C13.4789 8.47344 12.6901 12.6105 12.6901 12.6105ZM10.9872 14.7448C10.9872 14.3953 11.0726 14.1311 11.2435 13.9522C11.4144 13.7733 11.6631 13.6839 11.9896 13.6839C12.3047 13.6839 12.5477 13.7754 12.7186 13.9585C12.8932 14.1415 12.9805 14.4036 12.9805 14.7448C12.9805 15.0735 12.8932 15.3335 12.7186 15.5249C12.5439 15.7121 12.3009 15.8057 11.9896 15.8057C11.6706 15.8057 11.4239 15.7142 11.2492 15.5311C11.0745 15.3439 10.9872 15.0818 10.9872 14.7448Z" fill="#3D3D3D"/>
<path d="M13.0825 3.375L20.0107 15.375C20.4919 16.2083 19.8905 17.25 18.9282 17.25L5.0718 17.25C4.10955 17.25 3.50814 16.2083 3.98927 15.375L10.9175 3.375C11.3986 2.54167 12.6014 2.54167 13.0825 3.375Z" stroke="#3D3D3D" stroke-width="1.5"/>
</svg>
