<svg width="11" height="16" viewBox="0 0 11 16" fill="none" xmlns="http://www.w3.org/2000/svg">
<path d="M10.2246 11.0352C10.2246 12.3242 9.75911 13.3398 8.82812 14.082C7.90365 14.8242 6.61458 15.1953 4.96094 15.1953C3.4375 15.1953 2.08984 14.9089 0.917969 14.3359V11.5234C1.88151 11.9531 2.69531 12.2559 3.35938 12.4316C4.02995 12.6074 4.64193 12.6953 5.19531 12.6953C5.85938 12.6953 6.36719 12.5684 6.71875 12.3145C7.07682 12.0605 7.25586 11.6829 7.25586 11.1816C7.25586 10.9017 7.17773 10.6543 7.02148 10.4395C6.86523 10.2181 6.63411 10.0065 6.32812 9.80469C6.02865 9.60286 5.41341 9.2806 4.48242 8.83789C3.61003 8.42773 2.95573 8.03385 2.51953 7.65625C2.08333 7.27865 1.73503 6.83919 1.47461 6.33789C1.21419 5.83659 1.08398 5.25065 1.08398 4.58008C1.08398 3.31706 1.51042 2.32422 2.36328 1.60156C3.22266 0.878906 4.40755 0.517578 5.91797 0.517578C6.66016 0.517578 7.36654 0.605469 8.03711 0.78125C8.71419 0.957031 9.42057 1.20443 10.1562 1.52344L9.17969 3.87695C8.41797 3.56445 7.78646 3.34635 7.28516 3.22266C6.79036 3.09896 6.30208 3.03711 5.82031 3.03711C5.2474 3.03711 4.80794 3.17057 4.50195 3.4375C4.19596 3.70443 4.04297 4.05273 4.04297 4.48242C4.04297 4.74935 4.10482 4.98372 4.22852 5.18555C4.35221 5.38086 4.54753 5.57292 4.81445 5.76172C5.08789 5.94401 5.72917 6.27604 6.73828 6.75781C8.07292 7.39583 8.98763 8.03711 9.48242 8.68164C9.97721 9.31966 10.2246 10.1042 10.2246 11.0352Z" fill="#3D3D3D"/>
</svg>
